<svg id="Layer_1" enable-background="new 0 0 512 512" height="512" viewBox="0 0 512 512" width="512" xmlns="http://www.w3.org/2000/svg"><path d="m285 151h-45v-45c0-57.891 48.109-106 106-106h45v46c0 57.891-48.109 105-106 105z" fill="#90cc1c"/><path d="m270.002 63.574h29.997v84.853h-29.997z" fill="#6b0" transform="matrix(.707 .707 -.707 .707 158.428 -170.479)"/><path d="m225 121-45 15v30c0 57.891 47.109 105 105 105h45v-45c0-57.891-47.109-105-105-105z" fill="#90cc1c"/><path d="m182.574 151.002h84.853v29.997h-84.853z" fill="#6b0" transform="matrix(.707 .707 -.707 .707 183.281 -110.479)"/><path d="m512 0v15c0 74.399-61.601 136-136 136h-151c-57.9 0-105 47.1-105 105v75h-30v-75c0-22.2 5.4-43.2 15-61.8 22.5-43.5 67.8-73.2 120-73.2h151c57.9 0 106-48.1 106-106v-15z" fill="#d1f05a"/><path d="m512 0v15c0 74.399-61.601 136-136 136h-151c-57.9 0-105 47.1-105 105v75h-15v-136.8c22.5-43.5 67.8-73.2 120-73.2h151c57.9 0 106-48.1 106-106v-15z" fill="#b9dd39"/><path d="m421 241c-33.091 0-60-26.909-60-60h30c0 16.538 13.462 30 30 30s31-13.462 31-30-14.462-30-31-30h-45v-30h45c33.091 0 61 26.909 61 60s-27.909 60-61 60z" fill="#b9dd39"/><path d="m75 271c-18.501 0-33.409 10.664-40.514 27.817-7.104 17.139-3.384 35.918 9.697 48.999l20.211-21.211c-6.533-6.533-4.102-14.136-3.193-16.304.908-2.182 4.57-9.301 13.799-9.301 8.555 0 12.29 6.006 13.506 8.599.967 2.051 3.647 9.258-1.978 16.011l-72.598 86.953c-8.979 10.751-13.93 25.404-13.93 39.437 0 33.091 26.909 60 60 60 18.007 0 33.995-8.134 45-20.729v-208.301c-8.082-7.398-18.475-11.97-30-11.97z" fill="#da90f8"/><path d="m210 452c0-14.033-4.951-28.686-13.931-39.438l-72.598-86.953c-5.625-6.753-2.944-13.96-1.978-16.011 1.217-2.592 4.952-8.598 13.507-8.598 9.229 0 12.891 7.119 13.799 9.302.908 2.168 3.34 9.771-3.193 16.304l21.211 21.211c13.081-13.081 16.802-31.86 9.697-48.999-7.105-17.154-23.013-27.818-41.514-27.818-11.525 0-21.918 4.572-30 11.97v208.301c11.005 12.595 26.993 20.729 45 20.729 33.091 0 60-26.909 60-60z" fill="#b760ea"/></svg>