<svg id="Capa_1" enable-background="new 0 0 512 512" height="512" viewBox="0 0 512 512" width="512" xmlns="http://www.w3.org/2000/svg"><g><path d="m406.012 50.332h-300.024c-15.871 0-28.737 12.866-28.737 28.737v176.639c0 15.871 12.866 28.737 28.737 28.737h300.025c15.871 0 28.737-12.866 28.737-28.737v-176.639c-.001-15.871-12.867-28.737-28.738-28.737z" fill="#ebebeb"/><path d="m466.682 128.043v200.638c0 18.708-15.164 33.872-33.872 33.872h-353.62c-18.708 0-33.872-15.164-33.872-33.872v-200.638c0-18.708 15.164-33.872 33.872-33.872h353.62c18.708 0 33.872 15.164 33.872 33.872z" fill="#f9f7f8"/><path d="m466.682 196.066v132.615c0 18.708-15.164 33.872-33.872 33.872h-353.62c-18.708 0-33.872-15.164-33.872-33.872v-132.615h79.994c11.311 0 21.181 7.675 23.952 18.646l5.645 22.314c2.771 10.961 12.64 18.646 23.952 18.646h154.28c11.311 0 21.181-7.685 23.952-18.646l5.645-22.314c2.771-10.972 12.64-18.646 23.952-18.646z" fill="#ebebeb"/><path d="m512 264.13v158.246c0 21.7-17.591 39.291-39.291 39.291h-433.418c-21.7.001-39.291-17.591-39.291-39.291v-158.246c0-21.7 17.591-39.291 39.291-39.291h86.021c11.31 0 21.176 7.68 23.95 18.645l5.647 22.317c2.774 10.965 12.64 18.645 23.95 18.645h154.282c11.31 0 21.176-7.68 23.95-18.645l5.647-22.317c2.774-10.965 12.64-18.645 23.95-18.645h86.021c21.7 0 39.291 17.591 39.291 39.291z" fill="#fe9738"/><g fill="#fe7d43"><path d="m396.145 265.801 5.647-22.317c2.774-10.965 12.64-18.645 23.95-18.645h-39.054c-11.31 0-21.176 7.68-23.95 18.645l-5.647 22.317c-2.774 10.965-12.64 18.645-23.95 18.645h39.054c11.31-.001 21.175-7.681 23.95-18.645z"/><path d="m39.054 422.376v-158.246c0-21.7 17.591-39.291 39.291-39.291h-39.054c-21.7 0-39.291 17.591-39.291 39.291v158.246c0 21.7 17.591 39.291 39.291 39.291h39.054c-21.7.001-39.291-17.59-39.291-39.291z"/></g><g fill="#7a6d79"><path d="m328.714 156.513h-230.212c-4.267 0-7.726-3.459-7.726-7.726s3.459-7.726 7.726-7.726h230.212c4.267 0 7.726 3.459 7.726 7.726.001 4.266-3.459 7.726-7.726 7.726z"/><path d="m234.163 194.539h-135.661c-4.267 0-7.726-3.459-7.726-7.726s3.459-7.726 7.726-7.726h135.661c4.267 0 7.726 3.459 7.726 7.726s-3.459 7.726-7.726 7.726z"/><path d="m429.988 178.958-20.329-53.87c-.027-.072-.055-.143-.085-.214-1.389-3.373-4.642-5.551-8.289-5.551-.004 0-.008 0-.012 0-3.651.004-6.904 2.191-8.286 5.571-.024.058-.047.116-.069.175l-20.516 53.867c-1.519 3.988.482 8.452 4.47 9.97.905.345 1.835.508 2.749.508 3.113 0 6.048-1.896 7.222-4.978l3.214-8.439h22.297l3.176 8.417c1.507 3.991 5.963 6.008 9.957 4.501 3.992-1.507 6.007-5.965 4.501-9.957zm-34.046-18.414 5.314-13.953 5.266 13.953z"/></g><g fill="#f9f7f8"><path d="m72.5 336.971c-.027-.07-.054-.14-.083-.21-1.484-3.612-4.965-5.944-8.87-5.944-.003 0-.007 0-.01 0-3.908.004-7.389 2.344-8.868 5.962-.024.057-.046.115-.068.173l-30.885 81.093c-1.519 3.988.482 8.452 4.47 9.97 3.989 1.518 8.452-.483 9.97-4.47l5.797-15.22h38.957l5.736 15.198c1.168 3.094 4.108 5.001 7.23 5 .906 0 1.828-.16 2.726-.499 3.992-1.507 6.008-5.965 4.501-9.957zm-22.661 55.901 13.683-35.925 13.558 35.925z"/><path d="m213.131 413.068h-26.614v-25.297h24.083c4.267 0 7.726-3.459 7.726-7.726s-3.459-7.726-7.726-7.726h-24.082v-25.298h26.614c4.267 0 7.726-3.459 7.726-7.726s-3.459-7.726-7.726-7.726h-34.341c-4.267 0-7.726 3.459-7.726 7.726v81.501c0 4.267 3.459 7.726 7.726 7.726h34.341c4.267 0 7.726-3.459 7.726-7.726s-3.46-7.728-7.727-7.728z"/><path d="m150.44 372.318h-34.943c-4.267 0-7.726 3.459-7.726 7.726s3.459 7.726 7.726 7.726h34.943c4.267 0 7.726-3.459 7.726-7.726s-3.459-7.726-7.726-7.726z"/></g></g></svg>