<svg xmlns="http://www.w3.org/2000/svg" height="315pt" version="1.1" viewBox="0 0 511.99896 511" width="600pt">
<g id="surface1">
<path d="M 270.710938 353.140625 L 216.507812 80.636719 C 215.785156 77.023438 213.761719 73.800781 210.820312 71.582031 C 171.101562 41.65625 132.269531 27.84375 130.636719 27.269531 C 123.425781 24.734375 115.460938 28.035156 112.148438 34.925781 C 111.402344 36.488281 93.710938 73.714844 86.785156 122.957031 C 86.273438 126.605469 87.121094 130.316406 89.167969 133.378906 L 243.527344 364.398438 C 246.382812 368.667969 251.117188 371.066406 256.007812 371.066406 C 257.929688 371.066406 259.875 370.695312 261.738281 369.921875 C 268.351562 367.183594 272.105469 360.15625 270.710938 353.140625 Z M 270.710938 353.140625 " style=" stroke:none;fill-rule:nonzero;fill:rgb(100%,52.156863%,59.215686%);fill-opacity:1;" />
<path d="M 425.214844 122.957031 C 418.285156 73.714844 400.597656 36.488281 399.847656 34.925781 C 396.535156 28.035156 388.574219 24.738281 381.363281 27.269531 C 379.726562 27.84375 340.894531 41.65625 301.175781 71.582031 C 298.234375 73.800781 296.210938 77.023438 295.492188 80.636719 L 241.289062 353.136719 C 239.894531 360.15625 243.648438 367.179688 250.261719 369.917969 C 252.125 370.691406 254.074219 371.0625 255.996094 371.0625 C 260.886719 371.0625 265.617188 368.664062 268.472656 364.394531 L 422.835938 133.378906 C 424.878906 130.316406 425.726562 126.605469 425.214844 122.957031 Z M 425.214844 122.957031 " style=" stroke:none;fill-rule:nonzero;fill:rgb(100%,21.176471%,21.176471%);fill-opacity:1;" />
<path d="M 322.988281 387.839844 L 265.039062 344.089844 C 259.6875 340.054688 252.3125 340.054688 246.964844 344.089844 L 189.015625 387.839844 C 184.425781 391.304688 182.21875 397.085938 183.339844 402.726562 C 195.191406 462.574219 243.925781 506.773438 245.996094 508.625 C 248.84375 511.175781 252.421875 512.449219 256 512.449219 C 259.578125 512.449219 263.15625 511.175781 266.003906 508.625 C 268.074219 506.773438 316.804688 462.574219 328.664062 402.726562 C 329.78125 397.089844 327.574219 391.304688 322.988281 387.839844 Z M 322.988281 387.839844 " style=" stroke:none;fill-rule:nonzero;fill:rgb(35.686275%,78.823529%,50.196078%);fill-opacity:1;" />
<path d="M 322.988281 387.839844 L 265.039062 344.089844 C 262.363281 342.074219 259.183594 341.0625 256 341.0625 L 256 512.449219 C 259.578125 512.449219 263.15625 511.175781 266.003906 508.625 C 268.074219 506.773438 316.804688 462.574219 328.664062 402.726562 C 329.78125 397.089844 327.574219 391.304688 322.988281 387.839844 Z M 322.988281 387.839844 " style=" stroke:none;fill-rule:nonzero;fill:rgb(0%,60%,32.941176%);fill-opacity:1;" />
<path d="M 266.003906 338.789062 C 259.835938 333.265625 250.351562 333.789062 244.824219 339.957031 C 244.734375 340.0625 242.949219 342.027344 239.730469 345.160156 L 100.964844 304.183594 C 101.898438 301.035156 101.8125 297.558594 100.476562 294.28125 C 97.351562 286.609375 88.597656 282.925781 80.925781 286.050781 C 36.074219 304.335938 5.144531 338.515625 3.847656 339.960938 C -1.25 345.65625 -1.25 354.273438 3.847656 359.96875 C 6.234375 362.632812 63.097656 425.207031 135.507812 425.207031 C 207.925781 425.207031 264.789062 362.632812 267.171875 359.96875 C 272.699219 353.796875 272.175781 344.316406 266.003906 338.789062 Z M 266.003906 338.789062 " style=" stroke:none;fill-rule:nonzero;fill:rgb(50.196078%,82.745098%,59.607843%);fill-opacity:1;" />
<path d="M 508.148438 339.957031 C 506.855469 338.511719 475.917969 304.328125 431.058594 286.046875 C 423.386719 282.917969 414.632812 286.605469 411.507812 294.273438 C 410.171875 297.554688 410.085938 301.03125 411.023438 304.179688 L 272.289062 345.152344 C 269.050781 342.015625 267.25 340.046875 267.160156 339.941406 C 264.199219 336.648438 260.109375 334.96875 256 334.964844 L 256.003906 371.085938 C 276.289062 389.757812 321.980469 425.207031 376.488281 425.207031 C 448.902344 425.207031 505.761719 362.628906 508.148438 359.96875 C 513.25 354.273438 513.25 345.652344 508.148438 339.957031 Z M 508.148438 339.957031 " style=" stroke:none;fill-rule:nonzero;fill:rgb(0%,40%,20.784314%);fill-opacity:1;" />
<path d="M 270.976562 355.238281 C 270.519531 346.96875 263.433594 340.625 255.171875 341.089844 C 255.035156 341.097656 253.148438 341.1875 249.847656 341.210938 L 179.214844 170.683594 C 181.777344 169.625 184.078125 167.855469 185.785156 165.414062 C 190.519531 158.621094 188.851562 149.269531 182.058594 144.53125 C 111.753906 95.507812 18.300781 100.054688 14.355469 100.273438 C 6.722656 100.695312 0.625 106.789062 0.207031 114.421875 C -0.0664062 119.355469 -5.648438 236.039062 64.78125 306.46875 C 124.472656 366.15625 217.382812 371.246094 247.332031 371.246094 C 252.71875 371.246094 256.074219 371.082031 256.828125 371.042969 C 265.097656 370.585938 271.433594 363.507812 270.976562 355.238281 Z M 270.976562 355.238281 " style=" stroke:none;fill-rule:nonzero;fill:rgb(100%,21.176471%,21.176471%);fill-opacity:1;" />
<path d="M 511.792969 114.421875 C 511.371094 106.789062 505.277344 100.695312 497.644531 100.273438 C 493.699219 100.054688 400.246094 95.507812 329.9375 144.535156 C 323.144531 149.269531 321.476562 158.621094 326.214844 165.414062 C 327.917969 167.859375 330.21875 169.625 332.78125 170.683594 L 262.152344 341.203125 C 258.84375 341.183594 256.949219 341.097656 256.808594 341.089844 C 248.535156 340.640625 241.476562 346.972656 241.023438 355.238281 C 240.566406 363.511719 246.902344 370.585938 255.171875 371.042969 C 255.921875 371.082031 259.273438 371.246094 264.667969 371.246094 C 294.621094 371.246094 387.53125 366.152344 447.214844 306.46875 C 517.648438 236.039062 512.066406 119.355469 511.792969 114.421875 Z M 511.792969 114.421875 " style=" stroke:none;fill-rule:nonzero;fill:rgb(100%,52.156863%,59.215686%);fill-opacity:1;" />
<path d="M 266.003906 4.324219 C 260.308594 -0.777344 251.691406 -0.777344 245.996094 4.324219 C 242.3125 7.621094 155.859375 86.179688 155.859375 185.78125 C 155.859375 285.382812 242.3125 363.945312 245.996094 367.242188 C 248.84375 369.789062 252.421875 371.066406 256 371.066406 C 259.578125 371.066406 263.15625 369.789062 266.003906 367.242188 C 269.6875 363.945312 356.140625 285.386719 356.140625 185.78125 C 356.140625 86.179688 269.6875 7.621094 266.003906 4.324219 Z M 266.003906 4.324219 " style=" stroke:none;fill-rule:nonzero;fill:rgb(100%,52.156863%,59.215686%);fill-opacity:1;" />
<path d="M 266.003906 4.324219 C 263.15625 1.773438 259.578125 0.5 256 0.5 L 256 371.066406 C 259.578125 371.066406 263.15625 369.789062 266.003906 367.242188 C 269.6875 363.945312 356.140625 285.386719 356.140625 185.78125 C 356.140625 86.179688 269.6875 7.621094 266.003906 4.324219 Z M 266.003906 4.324219 " style=" stroke:none;fill-rule:nonzero;fill:rgb(100%,21.176471%,21.176471%);fill-opacity:1;" />
</g>
</svg>
