<?xml version="1.0" encoding="iso-8859-1"?>
<!-- Generator: Adobe Illustrator 19.0.0, SVG Export Plug-In . SVG Version: 6.00 Build 0)  -->
<svg version="1.1" id="Capa_1" xmlns="http://www.w3.org/2000/svg" xmlns:xlink="http://www.w3.org/1999/xlink" x="0px" y="0px"
	 viewBox="0 0 436.38 436.38" style="enable-background:new 0 0 436.38 436.38;" xml:space="preserve">
<path style="fill:#EB7A25;" d="M404.38,47.984H270.396c-8.48,0-16.624,3.376-22.624,9.376l-174.4,174.368
	c-12.496,12.496-12.496,32.752,0,45.264l133.984,133.984c12.496,12.496,32.752,12.496,45.248,0l174.4-174.368
	c6-6.016,9.376-14.16,9.376-22.64V79.984C436.38,62.32,422.06,47.984,404.38,47.984z M284.38,137.408
	c-18.432,0-33.376-14.944-33.376-33.376s14.944-33.376,33.376-33.376s33.376,14.944,33.376,33.376S302.812,137.408,284.38,137.408z"
	/>
<path style="fill:#AD5B26;" d="M73.372,276.992L207.34,410.976c12.496,12.496,32.752,12.496,45.248,0l135.792-135.76V47.984H270.396
	c-4.24,0-8.4,0.848-12.24,2.432c-3.84,1.6-7.376,3.936-10.384,6.928l-174.4,174.368c-7.808,7.808-10.736,18.656-8.784,28.736
	c0.528,2.72,1.536,5.328,2.768,7.856C68.876,271.424,70.796,274.4,73.372,276.992z M284.38,70.656
	c18.432,0,33.376,14.944,33.376,33.376s-14.944,33.376-33.376,33.376s-33.376-14.944-33.376-33.376S265.948,70.656,284.38,70.656z"
	/>
<path style="fill:#7AA3D6;" d="M340.38,16.032H206.396c-8.48,0-16.624,3.376-22.624,9.376L9.372,199.776
	c-12.496,12.496-12.496,32.752,0,45.264l133.984,133.984c12.496,12.496,32.752,12.496,45.248,0l174.4-174.368
	c6-6.016,9.376-14.16,9.376-22.656V48.032C372.38,30.352,358.06,16.032,340.38,16.032z M284.38,128.032c-13.248,0-24-10.752-24-24
	s10.752-24,24-24s24,10.752,24,24S297.628,128.032,284.38,128.032z"/>
<path style="fill:#5886C5;" d="M284.38,84.032c11.024,0,20,8.976,20,20s-8.976,20-20,20s-20-8.976-20-20
	S273.356,84.032,284.38,84.032 M284.38,68.032c-19.888,0-36,16.112-36,36s16.112,36,36,36s36-16.112,36-36
	S304.268,68.032,284.38,68.032z"/>
<g>
</g>
<g>
</g>
<g>
</g>
<g>
</g>
<g>
</g>
<g>
</g>
<g>
</g>
<g>
</g>
<g>
</g>
<g>
</g>
<g>
</g>
<g>
</g>
<g>
</g>
<g>
</g>
<g>
</g>
</svg>
